<?xml version="1.0" standalone="no"?>
<!DOCTYPE svg PUBLIC "-//W3C//DTD SVG 20010904//EN"
 "http://www.w3.org/TR/2001/REC-SVG-20010904/DTD/svg10.dtd">
<svg version="1.0" xmlns="http://www.w3.org/2000/svg"
 width="415.000000pt" height="415.000000pt" viewBox="0 0 415.000000 415.000000"
 preserveAspectRatio="xMidYMid meet">

<g transform="translate(0.000000,415.000000) scale(0.100000,-0.100000)"
fill="#ffffff" stroke="none">
<path d="M812 3077 c-12 -29 -38 -70 -57 -92 -33 -38 -34 -40 -15 -49 30 -13
35 -44 13 -75 -44 -59 -107 -28 -148 74 l-25 60 0 -81 c0 -65 -3 -84 -18 -97
-25 -23 -57 -21 -82 5 -24 26 -25 45 -5 68 14 16 13 18 -12 28 -31 13 -150 42
-172 42 -7 0 11 -26 40 -57 33 -37 70 -95 102 -161 l50 -102 171 -55 171 -56
182 57 182 57 49 101 c31 64 68 122 101 159 29 31 47 57 40 57 -22 0 -141 -29
-172 -42 -26 -10 -27 -12 -11 -29 34 -38 -9 -98 -61 -85 -29 7 -45 51 -45 120
l0 51 -24 -51 c-25 -54 -67 -94 -97 -94 -27 0 -59 35 -59 64 0 14 10 32 22 40
l22 16 -36 37 c-21 21 -47 61 -60 90 l-23 51 -23 -51z"/>
<path d="M390 2569 c-137 -93 -231 -161 -228 -165 2 -2 37 5 78 16 41 11 76
17 79 15 6 -6 13 -1 -116 -79 -61 -37 -114 -75 -117 -83 -17 -42 -18 -192 -3
-272 17 -85 68 -211 86 -211 5 0 29 28 53 62 l43 61 3 -134 3 -134 96 -93 c54
-50 100 -92 103 -92 3 0 15 15 25 33 l20 32 5 -65 5 -65 148 -145 c82 -80 150
-146 151 -148 2 -1 76 64 165 145 l161 148 0 65 c1 68 2 68 37 13 10 -16 20
-9 107 77 l95 94 3 134 3 134 44 -66 c24 -36 45 -66 47 -66 5 0 53 95 70 140
l14 35 -5 -34 c-6 -39 -64 -161 -76 -161 -5 0 -21 18 -35 40 -15 22 -31 40
-36 40 -9 0 -10 -184 -1 -207 4 -10 276 -13 1314 -13 l1309 0 0 335 0 335
-1240 0 -1240 0 -115 71 c-64 39 -115 73 -113 75 2 1 46 -8 98 -21 52 -14 100
-25 105 -25 10 0 -65 51 -250 169 l-100 64 -170 -57 c-94 -31 -178 -56 -187
-56 -9 0 -92 25 -183 55 -92 30 -170 55 -174 55 -3 -1 -40 -24 -81 -51z m515
-190 l77 40 36 -23 c67 -43 95 -81 96 -128 l1 -43 -77 -40 c-58 -30 -80 -47
-87 -67 -12 -33 -22 -35 -46 -8 -10 11 -20 18 -22 16 -8 -8 26 -63 42 -69 10
-5 15 -20 15 -53 0 -32 4 -44 13 -42 6 3 13 15 15 29 6 54 13 69 31 69 26 0
68 35 75 64 10 42 41 42 91 1 25 -20 45 -42 45 -48 0 -29 -76 -111 -113 -123
-15 -5 -18 -13 -13 -37 3 -18 8 -53 12 -79 l6 -47 -36 -6 c-46 -9 -47 -25 -1
-25 31 0 35 -3 35 -26 0 -26 -1 -27 -51 -21 -49 6 -51 6 -35 -12 25 -27 19
-34 -23 -28 -42 5 -131 62 -131 82 0 23 41 64 90 91 28 15 50 31 50 36 0 16
-48 8 -104 -17 -70 -31 -75 -31 -136 0 -48 24 -110 34 -110 16 0 -4 27 -23 60
-40 51 -27 90 -68 90 -95 0 -13 -118 -76 -142 -76 -36 0 -43 15 -16 35 22 15
21 16 -28 9 -43 -5 -52 -3 -58 11 -9 24 1 35 34 35 16 0 32 5 35 10 3 6 -3 10
-15 10 -12 0 -30 4 -40 10 -15 8 -17 16 -9 47 11 48 11 113 1 113 -16 0 -93
73 -109 103 -15 30 -15 31 13 55 75 62 99 62 123 4 12 -28 47 -52 76 -52 11 0
15 -12 15 -37 0 -21 7 -47 15 -57 14 -19 15 -17 15 21 0 30 8 50 30 78 35 44
43 83 10 47 -27 -29 -36 -28 -48 8 -8 22 -27 37 -84 66 -40 20 -76 41 -80 47
-9 15 1 67 18 94 8 13 37 38 66 57 l52 35 77 -40 78 -41 76 41z m935 -175 c5
-5 10 -71 12 -147 3 -159 5 -157 -84 -157 l-58 0 0 154 c0 114 3 156 13 160
17 7 107 0 117 -10z m194 -17 c7 -29 -1 -37 -35 -37 -28 0 -30 -2 -27 -32 3
-28 8 -34 33 -38 30 -5 30 -6 33 -78 4 -91 -5 -104 -67 -100 -42 3 -46 5 -49
31 -3 24 0 27 27 27 29 0 31 3 31 35 0 30 -3 35 -23 35 -36 0 -47 19 -47 80 0
83 7 98 44 102 50 5 74 -3 80 -25z m255 18 c6 -3 11 -17 11 -31 0 -19 -5 -24
-24 -24 -30 0 -32 -9 -28 -111 3 -77 4 -79 28 -79 22 0 25 -4 22 -27 -2 -22
-9 -29 -32 -31 -15 -2 -39 -1 -52 2 -24 6 -24 7 -24 151 0 127 2 145 18 154
17 11 62 9 81 -4z m177 2 c2 -2 5 -14 6 -28 3 -20 -2 -25 -24 -27 -25 -3 -28
-8 -28 -38 0 -27 4 -34 20 -34 15 0 20 -7 20 -25 0 -18 -5 -25 -20 -25 -16 0
-20 -7 -20 -35 0 -31 3 -35 26 -35 22 0 25 -4 22 -27 -3 -26 -7 -28 -55 -31
l-53 -3 0 155 c0 114 3 156 13 159 12 5 87 0 93 -6z m122 -119 l3 -128 30 0
c24 0 30 -4 25 -16 -3 -9 -6 -22 -6 -30 0 -12 -12 -14 -52 -12 l-53 3 -3 145
c-1 79 0 150 3 158 3 7 15 12 27 10 22 -3 23 -7 26 -130z m170 -1 c2 -104 5
-127 17 -127 12 0 15 21 15 123 0 68 2 126 5 129 3 3 17 3 30 0 l25 -4 0 -138
c0 -160 -4 -170 -75 -170 -71 0 -75 10 -75 169 0 76 3 141 6 144 4 4 16 5 28
3 20 -3 21 -9 24 -129z m210 0 l3 -127 25 0 c22 0 25 -4 22 -27 -3 -26 -7 -28
-55 -31 l-53 -3 0 159 0 159 28 -2 27 -1 3 -127z m210 118 c5 -4 50 -263 51
-292 1 -22 -50 -15 -56 7 -3 11 -14 20 -24 20 -12 0 -19 -7 -19 -20 0 -16 -7
-20 -31 -20 -28 0 -30 2 -25 28 3 15 15 82 26 150 10 67 22 127 25 132 5 9 43
6 53 -5z m244 -7 c7 -11 5 -112 -4 -218 -1 -14 2 -37 6 -52 8 -26 6 -28 -21
-28 -26 0 -31 5 -45 48 l-16 47 -1 -47 c-1 -46 -2 -48 -31 -48 l-30 0 0 154
c0 174 -5 165 84 159 27 -1 53 -8 58 -15z m172 11 c2 -2 6 -15 8 -29 2 -21 -2
-26 -24 -28 -25 -3 -28 -8 -28 -38 0 -27 4 -34 20 -34 15 0 20 -7 20 -25 0
-18 -5 -25 -20 -25 -16 0 -20 -7 -20 -35 0 -31 3 -35 26 -35 22 0 25 -4 22
-27 -3 -26 -7 -28 -55 -31 l-53 -3 0 154 c0 84 2 156 6 159 6 6 92 4 98 -3z
m187 -21 c9 -33 4 -38 -33 -38 -27 0 -29 -3 -26 -32 3 -28 8 -34 33 -38 29 -5
30 -6 33 -72 4 -93 -7 -110 -66 -106 -43 3 -47 5 -50 31 -3 24 0 27 27 27 29
0 31 3 31 35 0 30 -3 35 -23 35 -37 0 -47 19 -47 90 0 88 9 98 79 96 29 -1 36
-6 42 -28z m-2204 -215 c-3 -10 -5 -4 -5 12 0 17 2 24 5 18 2 -7 2 -21 0 -30z
m228 -165 c-5 -25 -4 -29 4 -18 8 12 11 9 10 -15 0 -16 -3 -24 -6 -17 -4 10
-8 10 -19 1 -12 -10 -13 -6 -8 22 8 46 12 59 19 59 4 0 4 -15 0 -32z m1227 -5
c-6 -59 -9 -62 -13 -10 -3 29 0 47 6 47 7 0 9 -15 7 -37z m-712 1 c0 -8 -5
-12 -10 -9 -6 4 -8 11 -5 16 9 14 15 11 15 -7z m-394 -6 c4 -7 3 -8 -4 -4 -7
4 -12 3 -12 -3 0 -5 5 -13 10 -16 16 -10 12 -25 -7 -25 -14 0 -15 2 -4 9 9 6
10 11 2 15 -13 9 -15 36 -2 36 6 0 13 -5 17 -12z m104 8 c0 -2 -7 -7 -16 -10
-8 -3 -12 -2 -9 4 6 10 25 14 25 6z m87 -43 c-3 -10 -5 -2 -5 17 0 19 2 27 5
18 2 -10 2 -26 0 -35z m113 -9 c0 -2 -8 -4 -17 -4 -14 0 -15 2 -4 9 9 6 10 11
2 15 -6 4 -11 15 -11 24 0 11 6 6 15 -12 8 -15 15 -30 15 -32z m199 34 c0 -22
-1 -22 -9 -3 -8 19 -9 19 -9 -2 -1 -12 5 -24 12 -26 7 -3 5 -6 -5 -6 -13 -1
-18 7 -18 29 0 20 5 30 15 30 9 0 15 -9 14 -22z m88 -25 c-3 -10 -5 -2 -5 17
0 19 2 27 5 18 2 -10 2 -26 0 -35z m20 0 c-3 -10 -5 -2 -5 17 0 19 2 27 5 18
2 -10 2 -26 0 -35z m113 36 c0 -5 -4 -7 -10 -4 -5 3 -10 -3 -10 -14 0 -10 6
-22 13 -24 7 -3 5 -6 -5 -6 -13 -1 -18 7 -18 29 0 20 5 30 15 30 8 0 15 -5 15
-11z m194 -5 c8 -21 8 -24 -3 -24 -5 0 -11 9 -14 20 -6 24 8 27 17 4z m302 -2
c1 -7 0 -8 -3 -2 -8 16 -21 12 -19 -7 0 -10 8 -21 16 -25 11 -5 9 -7 -7 -7
-18 -1 -23 5 -23 22 0 13 3 27 7 31 9 9 26 2 29 -12z m109 8 c4 -6 1 -9 -6 -8
-20 5 -22 -30 -2 -35 14 -4 13 -5 -4 -6 -18 -1 -23 4 -23 22 0 34 21 50 35 27z
m82 -37 c-3 -10 -5 -2 -5 17 0 19 2 27 5 18 2 -10 2 -26 0 -35z m33 10 c0 -32
-5 -28 -14 10 -4 19 -3 26 4 22 5 -3 10 -18 10 -32z m190 26 c0 -5 -4 -7 -10
-4 -5 3 -10 -3 -10 -14 0 -10 6 -22 13 -24 7 -3 5 -6 -5 -6 -13 -1 -18 7 -18
29 0 20 5 30 15 30 8 0 15 -5 15 -11z m110 -19 c0 -23 -4 -30 -20 -30 -22 0
-27 15 -8 26 7 4 8 3 4 -4 -4 -7 -2 -12 3 -12 15 0 14 37 -1 43 -8 3 -6 6 5 6
12 1 17 -7 17 -29z m-933 -17 c-3 -10 -5 -4 -5 12 0 17 2 24 5 18 2 -7 2 -21
0 -30z m710 0 c-3 -10 -5 -4 -5 12 0 17 2 24 5 18 2 -7 2 -21 0 -30z m-1407
-4 c0 -5 -10 -8 -22 -8 -18 1 -19 2 -5 6 9 2 14 9 11 15 -4 7 -2 8 4 4 7 -4
12 -11 12 -17z m277 -1 c-3 -8 -6 -5 -6 6 -1 11 2 17 5 13 3 -3 4 -12 1 -19z
m526 -5 c-7 -2 -19 -2 -25 0 -7 3 -2 5 12 5 14 0 19 -2 13 -5z m-1957 -86 c50
-27 59 -38 62 -63 3 -35 -23 -68 -33 -42 -5 12 -14 7 -39 -18 -19 -19 -43 -34
-54 -34 -25 0 -72 37 -72 58 0 14 -2 14 -13 -2 -12 -16 -14 -16 -26 -3 -7 9
-11 28 -9 44 2 23 14 34 63 60 33 18 61 33 61 33 1 0 28 -15 60 -33z"/>
<path d="M1770 2121 c0 -30 4 -41 16 -41 11 0 14 9 12 37 -4 52 -28 56 -28 4z"/>
<path d="M1770 1995 c0 -24 5 -35 15 -35 10 0 15 11 15 35 0 24 -5 35 -15 35
-10 0 -15 -11 -15 -35z"/>
<path d="M3147 2043 c-11 -10 -8 -53 3 -53 6 0 10 14 10 30 0 31 -2 35 -13 23z"/>
<path d="M3340 2105 c0 -42 3 -55 15 -55 12 0 15 13 15 55 0 42 -3 55 -15 55
-12 0 -15 -13 -15 -55z"/>
</g>
</svg>
