<?xml version="1.0" standalone="no"?>
<!DOCTYPE svg PUBLIC "-//W3C//DTD SVG 20010904//EN"
 "http://www.w3.org/TR/2001/REC-SVG-20010904/DTD/svg10.dtd">
<svg version="1.0" xmlns="http://www.w3.org/2000/svg"
 width="1280.000000pt" height="1280.000000pt" viewBox="0 0 1280.000000 1280.000000"
 preserveAspectRatio="xMidYMid meet">

<g transform="translate(0.000000,1280.000000) scale(0.100000,-0.100000)"
fill="#ffffff" stroke="none">
<path d="M6350 12023 c-47 -297 -233 -616 -532 -914 -59 -59 -108 -110 -108
-112 0 -3 19 -9 43 -15 102 -26 192 -84 223 -143 19 -38 18 -139 -3 -191 -22
-56 -66 -123 -116 -175 -53 -55 -121 -76 -227 -71 -263 12 -465 294 -601 838
l-34 135 -5 -465 c-5 -459 -5 -466 -28 -515 -47 -102 -114 -146 -236 -153
-155 -9 -232 32 -331 177 -49 72 -66 136 -51 195 10 41 65 95 129 128 l61 30
-25 19 c-127 101 -526 213 -1071 299 -130 21 -189 23 -143 5 43 -17 194 -128
261 -192 120 -115 281 -316 369 -460 147 -240 279 -489 369 -693 56 -130 64
-147 106 -258 l44 -112 340 -111 c188 -61 373 -121 411 -134 39 -13 219 -72
400 -130 182 -59 419 -136 527 -172 l197 -65 163 52 c233 74 675 215 798 255
58 19 213 69 345 111 253 80 478 152 583 186 44 14 66 27 72 42 70 172 152
360 209 480 263 551 577 974 859 1154 113 72 111 71 82 66 -498 -78 -808 -145
-1005 -219 -100 -38 -215 -101 -222 -121 -2 -6 16 -19 40 -28 55 -21 120 -76
137 -116 7 -18 11 -54 8 -90 -3 -49 -11 -69 -43 -115 -43 -63 -122 -143 -163
-164 -36 -19 -166 -26 -218 -12 -78 21 -142 87 -186 192 -21 52 -22 68 -27
489 -6 453 -7 457 -41 300 -42 -190 -143 -442 -231 -575 -106 -161 -230 -247
-367 -254 -95 -4 -191 20 -224 57 -89 102 -137 190 -145 267 -13 121 59 201
222 251 33 10 61 19 63 20 1 1 -57 62 -131 135 -184 185 -296 336 -392 527
-71 142 -124 307 -125 387 -1 67 -17 55 -30 -22z"/>
<path d="M4307 9215 c-460 -317 -683 -470 -1217 -835 -253 -173 -456 -316
-450 -318 5 -2 47 6 92 17 46 11 162 38 258 61 96 23 238 57 315 75 156 38
308 73 342 80 37 8 35 -11 -5 -38 -20 -14 -143 -89 -272 -168 -129 -78 -350
-212 -490 -297 -140 -85 -314 -190 -386 -233 -72 -44 -136 -84 -142 -91 -15
-19 -38 -147 -69 -378 -24 -180 -27 -237 -27 -475 0 -250 2 -288 32 -504 18
-128 34 -237 37 -241 2 -4 11 -42 20 -85 34 -163 117 -417 187 -575 61 -138
195 -380 246 -448 l18 -23 82 118 c46 65 157 225 248 356 97 139 172 237 181
237 16 0 16 -191 -3 -1088 l-7 -294 307 -301 c168 -166 306 -308 306 -314 0
-10 -169 -13 -810 -13 l-810 0 0 -725 0 -725 1553 0 1552 0 150 -147 c83 -80
258 -252 390 -382 132 -130 272 -267 312 -305 l71 -69 178 164 c98 90 319 293
492 452 l313 287 1635 0 1634 0 0 725 0 725 -906 0 c-561 0 -904 4 -902 9 2 6
86 94 188 198 102 103 237 241 299 305 l114 118 -12 527 c-6 291 -13 601 -15
691 -4 148 -3 163 12 160 9 -2 25 -17 37 -33 204 -303 460 -665 469 -662 19 6
133 196 205 342 160 324 249 639 307 1090 40 313 33 635 -22 1020 -19 136 -43
246 -57 263 -6 7 -35 28 -66 46 -53 31 -565 341 -756 458 -49 30 -166 101
-260 158 -204 123 -245 150 -245 162 0 4 10 6 23 4 52 -11 172 -40 497 -120
618 -152 755 -184 758 -181 2 1 -32 25 -74 51 -43 27 -106 66 -140 89 -34 22
-104 67 -156 100 -309 198 -436 279 -486 312 -172 110 -457 293 -826 529 -170
108 -314 197 -320 197 -6 0 -434 -140 -951 -312 -517 -171 -952 -311 -966
-311 -14 0 -433 135 -930 300 -497 166 -923 307 -947 315 l-42 13 -93 -63z
m2907 -1082 c297 -174 567 -397 626 -518 10 -22 26 -84 34 -137 16 -100 21
-314 8 -334 -4 -7 -198 -107 -432 -223 -233 -116 -426 -215 -430 -220 -3 -5
-23 -77 -44 -160 -31 -117 -44 -151 -56 -151 -29 0 -158 98 -201 153 -23 28
-55 80 -72 115 -40 86 -53 71 -37 -45 14 -98 50 -185 108 -261 32 -42 55 -65
169 -168 l32 -29 10 -215 c6 -118 11 -232 11 -253 0 -20 4 -37 9 -37 4 0 36
33 70 74 l61 74 10 104 c6 57 15 139 20 184 6 44 10 94 10 111 0 41 13 49 91
57 123 12 247 71 317 150 41 47 88 140 107 213 8 32 21 63 28 70 18 18 198
113 215 113 15 0 47 -24 188 -140 50 -41 146 -119 212 -174 69 -56 122 -106
122 -116 0 -32 -97 -215 -157 -295 -115 -154 -317 -321 -501 -414 -33 -17 -63
-34 -65 -38 -2 -5 8 -91 24 -193 16 -102 33 -216 38 -255 5 -38 16 -108 25
-155 23 -134 29 -197 18 -204 -5 -3 -112 -28 -238 -56 -126 -28 -236 -53 -244
-56 -29 -11 12 -22 165 -44 250 -35 328 -49 339 -60 13 -13 -8 -120 -35 -171
-22 -44 -67 -79 -101 -79 -23 0 -101 16 -365 73 -62 14 -113 21 -113 16 0 -5
59 -52 130 -105 72 -53 130 -100 130 -104 0 -18 -74 -69 -116 -79 -137 -35
-278 13 -534 180 -80 52 -184 119 -232 148 -48 30 -92 59 -98 66 -7 8 -4 31
11 76 67 202 181 325 395 425 136 63 414 224 414 239 0 7 -21 24 -47 37 -40
19 -63 23 -143 23 -106 -1 -92 4 -440 -150 -249 -110 -333 -145 -345 -145 -5
0 -77 30 -160 66 -82 37 -179 79 -215 94 -36 15 -99 43 -140 62 -127 59 -177
73 -270 73 -69 0 -93 -5 -127 -22 -77 -42 -76 -44 108 -148 121 -68 199 -108
284 -145 108 -47 242 -164 298 -261 57 -97 96 -227 72 -236 -6 -2 -40 -22 -77
-46 -37 -23 -93 -58 -124 -77 -31 -19 -100 -63 -153 -98 -274 -179 -473 -219
-588 -116 l-38 34 30 25 c24 21 193 145 239 177 26 17 -8 16 -95 -2 -346 -76
-388 -83 -416 -71 -16 6 -40 30 -55 54 -30 48 -61 146 -56 179 3 25 -15 21
332 73 165 25 185 29 174 40 -3 3 -110 28 -239 56 -129 28 -238 54 -242 58 -8
8 -2 64 33 286 12 77 35 223 50 325 33 215 44 186 -100 265 -174 95 -330 229
-443 380 -58 77 -157 263 -157 296 0 9 55 61 122 115 66 55 162 133 212 174
190 157 182 153 238 122 18 -10 65 -35 105 -56 70 -37 72 -39 82 -87 15 -69
65 -174 107 -226 71 -87 193 -148 320 -159 41 -4 78 -12 83 -18 9 -11 13 -44
31 -251 5 -66 12 -134 15 -152 5 -29 118 -183 134 -183 5 0 11 71 15 158 3 86
9 201 13 255 l6 98 61 50 c141 117 226 253 245 392 16 116 3 127 -45 36 -42
-80 -119 -165 -198 -217 -69 -45 -80 -42 -95 21 -7 28 -21 81 -31 117 -10 36
-24 84 -30 107 l-11 42 -427 212 c-235 116 -430 216 -434 222 -13 21 -8 239 7
337 9 52 26 115 37 140 29 59 177 206 303 301 120 90 349 237 383 246 26 6 39
1 197 -85 386 -208 622 -332 631 -332 9 0 161 78 364 188 47 25 162 85 255
134 94 49 174 94 180 99 13 13 10 14 99 -38z m-655 -3945 c135 -72 260 -139
276 -148 122 -68 145 -84 150 -100 3 -10 6 -56 6 -102 2 -130 -27 -212 -103
-294 -47 -51 -62 -54 -76 -16 -54 144 -66 172 -71 172 -4 0 -19 -26 -35 -57
-44 -93 -108 -184 -133 -194 -33 -12 -545 -12 -578 1 -20 7 -36 31 -66 94 -21
46 -39 95 -39 109 0 65 -29 28 -75 -96 -25 -68 -40 -70 -91 -13 -73 80 -114
230 -94 348 5 34 13 65 17 69 9 8 135 78 297 164 60 32 166 89 235 126 69 38
128 69 130 69 2 0 115 -59 250 -132z m-3487 -918 c60 -17 68 -38 68 -169 0
-105 -2 -117 -22 -139 -16 -18 -19 -26 -10 -29 39 -14 44 -33 40 -155 -3 -116
-4 -120 -30 -143 -37 -32 -81 -37 -293 -33 l-180 3 -3 329 c-2 257 1 331 10
338 19 11 377 10 420 -2z m685 -2 c10 -14 33 -88 33 -107 0 -7 -34 -11 -107
-11 -60 0 -114 -4 -121 -9 -9 -5 -12 -27 -10 -72 l3 -64 95 -5 c68 -4 104 -10
123 -23 l27 -17 0 -140 c0 -76 -4 -150 -9 -163 -16 -43 -74 -57 -229 -57 -75
0 -142 4 -148 8 -18 12 -44 113 -31 118 7 2 57 5 112 6 l100 3 0 70 0 70 -97
6 c-140 8 -138 5 -138 189 0 164 3 173 65 195 53 19 318 21 332 3z m930 0 c10
-14 33 -87 33 -106 0 -7 -35 -12 -97 -14 l-98 -3 0 -205 0 -205 98 -3 c62 -2
97 -7 97 -14 0 -19 -23 -93 -34 -106 -8 -11 -43 -13 -156 -10 -227 5 -222 -3
-218 367 4 321 -6 308 234 310 94 1 134 -3 141 -11z m609 4 c13 -8 44 -109 36
-117 -3 -3 -47 -5 -98 -5 -56 0 -95 -4 -100 -11 -9 -16 -8 -129 2 -139 5 -5
41 -10 79 -12 l70 -3 0 -55 0 -55 -78 -5 c-42 -3 -77 -8 -77 -12 0 -5 0 -35 0
-68 l0 -60 94 0 c52 0 97 -4 100 -9 3 -4 -2 -33 -12 -62 l-17 -54 -185 0 -185
0 -3 329 c-2 257 1 331 10 338 16 10 349 10 364 0z m422 2 l22 -6 0 -269 0
-268 93 -3 92 -3 -3 -35 c-2 -19 -9 -46 -15 -60 l-12 -25 -180 0 -180 0 -2
324 c-2 222 1 329 9 338 11 14 132 18 176 7z m599 -2 c9 -6 13 -77 15 -277 l3
-270 45 0 45 0 3 270 c2 200 6 271 15 277 14 9 158 11 181 2 14 -5 16 -41 16
-293 0 -325 -4 -345 -70 -368 -44 -15 -321 -17 -373 -2 -66 18 -66 20 -67 352
-1 163 2 302 5 307 7 12 164 13 182 2z m717 2 c14 -5 16 -39 16 -275 l0 -269
95 0 c60 0 95 -4 95 -11 0 -25 -24 -105 -34 -111 -6 -4 -88 -8 -182 -8 -150 0
-173 2 -178 16 -11 30 -6 637 6 651 11 14 151 19 182 7z m770 -10 c9 -8 16
-23 16 -31 0 -9 18 -84 40 -167 22 -83 58 -218 79 -300 22 -83 37 -154 35
-158 -3 -4 -45 -8 -93 -8 -92 0 -111 8 -111 46 0 31 -18 41 -71 42 -56 0 -63
-4 -75 -48 l-10 -35 -88 -3 c-49 -2 -93 1 -98 6 -5 5 1 46 15 98 14 49 44 163
67 254 61 238 81 304 94 312 6 4 50 8 98 8 66 0 90 -4 102 -16z m781 6 c22 -5
50 -21 63 -35 21 -25 22 -34 22 -200 0 -187 -2 -195 -57 -216 -29 -11 -28 -16
26 -126 21 -43 37 -81 34 -85 -8 -14 -190 -9 -200 5 -5 6 -27 54 -48 105 -21
51 -44 92 -51 92 -10 0 -14 -25 -16 -102 l-3 -103 -95 0 -95 0 -3 329 c-2 257
1 331 10 338 18 11 364 10 413 -2z m672 2 c11 -7 43 -92 43 -114 0 -4 -46 -9
-102 -10 l-103 -3 0 -75 0 -75 78 -3 78 -3 -3 -57 -3 -57 -78 -3 -78 -3 3 -67
3 -67 95 -5 c54 -3 95 -9 95 -15 -1 -26 -18 -91 -27 -102 -13 -16 -353 -19
-363 -4 -8 14 -8 648 0 661 7 12 343 14 362 2z m640 -4 c10 -14 33 -88 33
-106 0 -8 -40 -12 -117 -14 l-118 -3 0 -70 0 -70 96 -6 c67 -4 105 -11 123
-22 26 -17 26 -18 26 -157 0 -83 -5 -149 -11 -164 -21 -45 -75 -57 -239 -54
l-144 3 -17 55 c-9 30 -15 58 -12 63 2 4 53 7 114 7 l109 0 0 74 0 74 -99 4
c-143 5 -141 1 -141 193 0 168 -1 166 67 191 51 18 317 19 330 2z m-6903 -823
c22 -53 47 -156 40 -167 -4 -6 -17 1 -31 16 -30 33 -44 33 -72 0 -27 -31 -47
-20 -33 17 5 13 20 57 32 97 25 81 42 91 64 37z m4326 30 c0 -3 -11 -10 -25
-15 -24 -9 -25 -13 -25 -94 0 -86 -5 -101 -29 -86 -11 6 -13 27 -8 90 5 79 5
81 -19 90 -39 15 -28 20 41 20 36 0 65 -2 65 -5z m-3230 -36 c0 -5 -9 -9 -20
-9 -22 0 -27 16 -7 23 15 5 27 -1 27 -14z m4665 11 c3 -6 -1 -13 -10 -16 -19
-8 -30 0 -20 15 8 14 22 14 30 1z m-3605 -21 c0 -5 -15 -9 -32 -9 -31 1 -32 2
-15 15 19 14 47 10 47 -6z m1100 11 c0 -5 -9 -10 -20 -10 -11 0 -20 5 -20 10
0 6 9 10 20 10 11 0 20 -4 20 -10z m1410 1 c0 -6 -4 -13 -10 -16 -17 -11 -11
-23 13 -27 16 -2 23 -11 25 -30 3 -28 -2 -31 -63 -40 -11 -2 -20 -10 -20 -18
0 -16 22 -17 63 -5 16 6 22 3 22 -9 0 -19 -34 -29 -81 -24 -33 3 -34 4 -39 56
-6 60 -4 67 28 76 12 4 22 13 22 21 0 12 13 22 33 24 4 1 7 -3 7 -8z m-2890
-16 c0 -7 7 -18 16 -23 15 -8 15 -10 0 -15 -22 -8 -22 -85 -1 -93 23 -9 18
-24 -9 -24 -32 0 -48 22 -45 62 1 18 -1 41 -5 50 -4 9 -3 26 4 37 12 24 40 28
40 6z m-1356 -35 c19 -18 -5 -30 -33 -16 -17 9 -33 11 -41 6 -17 -10 -17 -10
38 -40 44 -25 50 -38 30 -58 -26 -26 -118 -10 -118 20 0 12 34 10 47 -3 12
-12 43 -6 43 8 0 4 -18 17 -41 27 -46 23 -51 28 -43 50 9 24 93 29 118 6z
m359 10 c9 0 17 -7 17 -15 0 -17 -14 -19 -39 -6 -10 6 -23 6 -31 1 -16 -10
-17 -9 33 -39 50 -30 49 -64 -2 -69 -46 -5 -81 5 -81 23 0 18 11 19 45 3 18
-8 29 -8 36 -1 7 7 -4 19 -35 37 -25 15 -46 34 -46 42 0 18 38 35 65 29 11 -3
28 -5 38 -5z m690 -7 c4 -2 7 -9 7 -14 0 -6 -17 -8 -45 -3 -25 3 -45 2 -45 -3
0 -5 20 -19 45 -31 46 -22 55 -38 33 -60 -26 -26 -118 -10 -118 20 0 12 34 10
47 -3 14 -14 47 -4 38 11 -4 6 -24 19 -46 31 -45 23 -49 49 -9 60 23 7 75 2
93 -8z m708 0 c6 -6 9 -21 7 -34 -2 -20 -10 -25 -42 -29 -22 -3 -41 -11 -44
-17 -6 -19 27 -28 49 -15 25 16 39 15 39 -3 0 -18 -35 -28 -81 -23 -33 3 -34
4 -39 57 -4 36 -2 58 7 66 15 15 88 14 104 -2z m771 1 c13 -8 9 -34 -4 -34 -7
0 -21 7 -31 15 -29 22 -47 8 -47 -36 0 -42 21 -62 43 -40 13 13 47 15 47 3 0
-19 -27 -32 -65 -32 -53 0 -65 13 -65 72 0 41 4 50 23 58 20 9 81 5 99 -6z
m663 6 c24 -9 26 -13 23 -67 l-3 -58 -48 -3 c-54 -4 -77 9 -77 43 0 25 17 35
60 35 34 0 45 13 26 30 -11 8 -20 8 -35 1 -27 -15 -41 -14 -41 3 0 13 17 20
57 25 6 0 23 -3 38 -9z m1469 -10 c4 -4 5 -13 2 -19 -9 -14 -36 -14 -36 -1 0
6 -11 10 -25 10 -23 0 -25 -4 -25 -40 0 -43 21 -63 43 -41 13 13 47 15 47 3 0
-18 -26 -32 -61 -32 -63 0 -69 6 -69 66 0 47 3 56 23 63 25 10 88 4 101 -9z
m1061 -1 c5 -6 5 -13 -2 -20 -8 -8 -17 -7 -33 4 -33 23 -50 11 -50 -34 0 -42
21 -62 43 -40 16 16 47 14 47 -3 0 -18 -22 -26 -70 -26 -55 0 -60 13 -51 122
2 18 95 16 116 -3z m381 0 c11 -9 11 -89 0 -108 -4 -6 -30 -11 -57 -11 -44 0
-51 3 -61 26 -11 22 -10 28 7 40 10 8 31 14 46 14 15 0 31 5 35 11 10 17 -16
28 -43 18 -31 -12 -43 -11 -43 1 0 27 86 33 116 9z m-5426 -49 c0 -53 -2 -60
-20 -60 -18 0 -20 7 -20 60 0 53 2 60 20 60 18 0 20 -7 20 -60z m1475 -5 c0
-47 -3 -60 -15 -60 -11 0 -16 14 -18 53 -3 47 -5 52 -27 52 -22 0 -24 -5 -27
-52 -2 -39 -7 -53 -18 -53 -11 0 -16 15 -18 63 l-3 63 63 -3 63 -3 0 -60z
m680 0 c0 -47 -3 -60 -15 -60 -11 0 -16 15 -18 63 -3 57 -1 63 15 60 15 -3 18
-13 18 -63z m2210 0 c0 -47 -3 -60 -15 -60 -11 0 -16 14 -18 53 -3 48 -5 52
-28 52 -22 0 -24 -4 -24 -49 0 -33 -5 -51 -14 -54 -22 -9 -26 2 -26 65 l0 59
63 -3 62 -3 0 -60z m300 0 c0 -47 -3 -60 -15 -60 -11 0 -16 15 -18 63 -3 57
-1 63 15 60 15 -3 18 -13 18 -63z"/>
<path d="M2851 3150 c-8 -4 -11 -34 -9 -86 3 -79 3 -79 32 -82 15 -2 39 -1 52
2 23 6 24 10 24 86 0 57 -4 80 -12 81 -7 0 -27 2 -44 3 -18 2 -37 0 -43 -4z"/>
<path d="M2847 2873 c-4 -3 -7 -40 -7 -80 l0 -74 53 3 52 3 3 69 c2 49 -1 72
-10 77 -16 10 -82 12 -91 2z"/>
<path d="M7691 2959 c-13 -33 -32 -150 -25 -160 7 -11 61 -12 68 -1 5 9 -21
172 -29 180 -2 3 -9 -6 -14 -19z"/>
<path d="M8373 3154 c-9 -4 -13 -37 -13 -115 l0 -109 55 0 55 0 0 110 c0 87
-3 110 -14 110 -7 0 -26 2 -42 5 -16 2 -35 2 -41 -1z"/>
<path d="M2957 2380 c-15 -22 -15 -26 -2 -39 22 -23 40 -1 28 35 l-9 28 -17
-24z"/>
<path d="M7610 2380 c-25 -15 4 -36 32 -23 22 10 22 10 2 21 -12 6 -26 7 -34
2z"/>
<path d="M5099 2379 c-10 -6 -11 -11 -2 -20 11 -11 53 -4 53 11 0 12 -36 19
-51 9z"/>
<path d="M6545 2320 c-11 -18 13 -36 31 -25 9 6 16 15 17 20 3 14 -40 18 -48
5z"/>
<path d="M9434 2319 c-10 -17 12 -32 35 -24 29 9 27 35 -3 35 -14 0 -28 -5
-32 -11z"/>
</g>
</svg>
